<mxfile host="app.diagrams.net" agent="Mozilla/5.0 (Windows NT 10.0; Win64; x64) AppleWebKit/537.36 (KHTML, like Gecko) Chrome/130.0.0.0 Safari/537.36 Edg/130.0.0.0" version="24.7.16">
  <diagram name="Page-1" id="fFBiLB-a67Tt65UV5LJc">
    <mxGraphModel dx="786" dy="455" grid="1" gridSize="10" guides="1" tooltips="1" connect="1" arrows="1" fold="1" page="1" pageScale="1" pageWidth="850" pageHeight="1100" math="0" shadow="0">
      <root>
        <mxCell id="0" />
        <mxCell id="1" parent="0" />
        <mxCell id="MLg8UkQ6f78W-7GLrbCv-2" value="&lt;div style=&quot;text-align: justify;&quot;&gt;&lt;br&gt;&lt;/div&gt;&lt;div style=&quot;text-align: justify;&quot;&gt;&lt;br&gt;&lt;/div&gt;&lt;div style=&quot;text-align: justify;&quot;&gt;username : string&lt;/div&gt;&lt;div style=&quot;text-align: justify;&quot;&gt;&lt;br&gt;&lt;/div&gt;&lt;div style=&quot;text-align: justify;&quot;&gt;password : string&lt;/div&gt;" style="rounded=0;whiteSpace=wrap;html=1;" vertex="1" parent="1">
          <mxGeometry x="317.5" y="20" width="190" height="120" as="geometry" />
        </mxCell>
        <mxCell id="MLg8UkQ6f78W-7GLrbCv-3" value="&lt;font style=&quot;font-size: 14px;&quot;&gt;&lt;b&gt;User&lt;/b&gt;&lt;/font&gt;" style="rounded=0;whiteSpace=wrap;html=1;" vertex="1" parent="1">
          <mxGeometry x="317.5" y="20" width="190" height="40" as="geometry" />
        </mxCell>
        <mxCell id="MLg8UkQ6f78W-7GLrbCv-4" value="&lt;div&gt;&lt;br&gt;&lt;/div&gt;&lt;div&gt;&lt;br&gt;&lt;/div&gt;length : int&lt;div&gt;includeUppercase : bool&lt;/div&gt;&lt;div&gt;IncludeLowerCase : bool&lt;/div&gt;&lt;div&gt;includeSymbols : bool&lt;/div&gt;&lt;div&gt;includeNumbers : bool&lt;/div&gt;&lt;div&gt;generatedPassword: string&lt;/div&gt;&lt;div&gt;&lt;br&gt;&lt;/div&gt;&lt;div&gt;&lt;br&gt;&lt;/div&gt;&lt;div&gt;generatePassword()&lt;/div&gt;&lt;div&gt;setLength()&lt;/div&gt;&lt;div&gt;ToggleUpperCase()&lt;/div&gt;&lt;div&gt;ToggleLowercase()&lt;/div&gt;&lt;div&gt;ToggleNumber()&lt;/div&gt;&lt;div&gt;ToggleSymbols()&lt;/div&gt;&lt;div&gt;&lt;br&gt;&lt;/div&gt;&lt;div&gt;&lt;br&gt;&lt;/div&gt;&lt;div&gt;&lt;br&gt;&lt;/div&gt;" style="rounded=0;whiteSpace=wrap;html=1;" vertex="1" parent="1">
          <mxGeometry x="250" y="200" width="310" height="310" as="geometry" />
        </mxCell>
        <mxCell id="MLg8UkQ6f78W-7GLrbCv-5" value="&lt;b&gt;PASSWORD GENERATOR&lt;/b&gt;" style="rounded=0;whiteSpace=wrap;html=1;" vertex="1" parent="1">
          <mxGeometry x="250" y="200" width="310" height="40" as="geometry" />
        </mxCell>
        <mxCell id="MLg8UkQ6f78W-7GLrbCv-6" value="" style="endArrow=none;html=1;rounded=0;" edge="1" parent="1">
          <mxGeometry width="50" height="50" relative="1" as="geometry">
            <mxPoint x="250" y="354.5" as="sourcePoint" />
            <mxPoint x="560" y="355.5" as="targetPoint" />
          </mxGeometry>
        </mxCell>
        <mxCell id="MLg8UkQ6f78W-7GLrbCv-8" value="minlength : int&lt;div&gt;maxlength : int&lt;/div&gt;&lt;div&gt;allowedSymbols[] : string&lt;/div&gt;&lt;div&gt;allowedNumbers[] : string&lt;/div&gt;&lt;div&gt;allowedUppercase[] : string&lt;/div&gt;&lt;div&gt;&lt;br&gt;&lt;/div&gt;&lt;div&gt;validCriteria(length,int) : bool&lt;/div&gt;" style="rounded=0;whiteSpace=wrap;html=1;" vertex="1" parent="1">
          <mxGeometry x="275" y="600" width="275" height="210" as="geometry" />
        </mxCell>
        <mxCell id="MLg8UkQ6f78W-7GLrbCv-9" value="&lt;b&gt;PASSWORD CRITERIA&lt;/b&gt;" style="rounded=0;whiteSpace=wrap;html=1;" vertex="1" parent="1">
          <mxGeometry x="275" y="600" width="275" height="40" as="geometry" />
        </mxCell>
        <mxCell id="MLg8UkQ6f78W-7GLrbCv-10" value="" style="endArrow=none;html=1;rounded=0;" edge="1" parent="1">
          <mxGeometry width="50" height="50" relative="1" as="geometry">
            <mxPoint x="250" y="354.5" as="sourcePoint" />
            <mxPoint x="560" y="355.5" as="targetPoint" />
          </mxGeometry>
        </mxCell>
        <mxCell id="MLg8UkQ6f78W-7GLrbCv-11" value="" style="endArrow=none;html=1;rounded=0;exitX=0.001;exitY=0.67;exitDx=0;exitDy=0;exitPerimeter=0;entryX=0.993;entryY=0.635;entryDx=0;entryDy=0;entryPerimeter=0;" edge="1" parent="1" target="MLg8UkQ6f78W-7GLrbCv-8">
          <mxGeometry width="50" height="50" relative="1" as="geometry">
            <mxPoint x="274.7250000000001" y="732.1" as="sourcePoint" />
            <mxPoint x="650" y="740" as="targetPoint" />
          </mxGeometry>
        </mxCell>
        <mxCell id="MLg8UkQ6f78W-7GLrbCv-12" value="" style="endArrow=classic;html=1;rounded=0;exitX=0.5;exitY=1;exitDx=0;exitDy=0;entryX=0.523;entryY=-0.067;entryDx=0;entryDy=0;entryPerimeter=0;" edge="1" parent="1" source="MLg8UkQ6f78W-7GLrbCv-2" target="MLg8UkQ6f78W-7GLrbCv-5">
          <mxGeometry width="50" height="50" relative="1" as="geometry">
            <mxPoint x="390" y="250" as="sourcePoint" />
            <mxPoint x="440" y="200" as="targetPoint" />
          </mxGeometry>
        </mxCell>
        <mxCell id="MLg8UkQ6f78W-7GLrbCv-13" value="" style="endArrow=classic;html=1;rounded=0;entryX=0.5;entryY=0;entryDx=0;entryDy=0;exitX=0.527;exitY=0.996;exitDx=0;exitDy=0;exitPerimeter=0;" edge="1" parent="1" source="MLg8UkQ6f78W-7GLrbCv-4" target="MLg8UkQ6f78W-7GLrbCv-9">
          <mxGeometry width="50" height="50" relative="1" as="geometry">
            <mxPoint x="413" y="520" as="sourcePoint" />
            <mxPoint x="440" y="450" as="targetPoint" />
            <Array as="points" />
          </mxGeometry>
        </mxCell>
      </root>
    </mxGraphModel>
  </diagram>
</mxfile>
